<svg width="50" height="50" viewBox="0 0 50 50" fill="none" xmlns="http://www.w3.org/2000/svg">
<mask id="mask0" mask-type="alpha" maskUnits="userSpaceOnUse" x="0" y="0" width="50" height="50">
<circle cx="25" cy="25" r="25" fill="#C4C4C4"/>
</mask>
<g mask="url(#mask0)">
<path d="M25 24.375H-3.125V52.5H25V24.375Z" fill="#B0ADAD"/>
<path d="M53.125 -3.75H25V24.375H53.125V-3.75Z" fill="#B0ADAD"/>
<path d="M53.125 24.375H25V52.5H53.125V24.375Z" fill="#E5FEF9"/>
<path d="M25 -3.75H-3.125V24.375H25V-3.75Z" fill="#E5FEF9"/>
<path d="M25.3125 16.25C23.9312 16.25 22.8125 17.3687 22.8125 18.75C22.8125 19.3062 22.9938 19.8188 23.3 20.2375C22.0813 20.9375 21.25 22.2437 21.25 23.75C21.25 25.0187 21.8375 26.15 22.7562 26.8938C20.8812 27.5563 18.125 30.3625 18.125 35.3125H32.5C32.5 30.3625 29.7438 27.5563 27.8688 26.8938C28.7875 26.15 29.375 25.0187 29.375 23.75C29.375 22.2437 28.5437 20.9375 27.325 20.2375C27.6312 19.8188 27.8125 19.3062 27.8125 18.75C27.8125 17.3687 26.6938 16.25 25.3125 16.25Z" fill="#060606" stroke="black" stroke-width="1.5" stroke-linecap="round"/>
</g>
</svg>
